<?xml version="1.0" encoding="utf-8"?>
<!-- Generator: Adobe Illustrator 24.0.1, SVG Export Plug-In . SVG Version: 6.00 Build 0)  -->
<svg version="1.1" id="Capa_1" xmlns="http://www.w3.org/2000/svg" xmlns:xlink="http://www.w3.org/1999/xlink" x="0px" y="0px"
	 viewBox="0 0 50 50" style="enable-background:new 0 0 50 50;" xml:space="preserve">
<style type="text/css">
	.st0{fill:#FFFFFF;}
</style>
<path class="st0" d="M12.1,7c-2.5,0-4.4,2.3-4.3,4.7c0.1,2.4,0,5.4-0.8,7.9c-0.7,2.5-2,4.1-4.1,4.3v2.3c2.1,0.2,3.3,1.8,4.1,4.3
	c0.7,2.5,0.9,5.5,0.8,7.9C7.8,40.7,9.6,43,12.1,43h25.7c2.5,0,4.4-2.3,4.3-4.7c-0.1-2.4,0-5.4,0.8-7.9c0.7-2.5,2-4.1,4.1-4.3v-2.3
	c-2.1-0.2-3.3-1.8-4.1-4.3c-0.7-2.5-0.8-5.5-0.8-7.9C42.2,9.3,40.4,7,37.9,7H12.1z M12.1,9h25.7c0.7,0,1.2,0.4,1.5,0.7
	c0.5,0.5,0.8,1.2,0.7,2c-0.1,2.3,0,5.7,0.9,8.5c0.8,2.6,2,4,3.3,4.8c-1.3,0.8-2.5,2.2-3.3,4.8c-0.8,2.8-0.9,6.2-0.9,8.5
	c0,0.7-0.2,1.4-0.7,2c-0.3,0.3-0.8,0.7-1.5,0.7H12.1c-0.7,0-1.2-0.4-1.5-0.7c-0.5-0.5-0.8-1.2-0.7-2c0.1-2.3,0-5.7-0.9-8.5
	c-0.8-2.6-2-4-3.3-4.8C7,24.2,8.2,22.8,9,20.2c0.8-2.8,0.9-6.2,0.9-8.5c0-0.7,0.2-1.4,0.7-2C10.9,9.4,11.4,9,12.1,9z M17.9,15.6
	v18.7h7.7c2,0,3.7-0.5,4.8-1.4c1.1-0.9,1.7-2.3,1.7-3.9c0-2.5-1.7-4.3-4.3-4.6v0c1.9-0.3,3.4-2.1,3.4-4.1c0-1.4-0.5-2.6-1.6-3.4
	c-1-0.8-2.4-1.3-4.1-1.3H17.9z M20.9,18.1h3.9c2.1,0,3.3,0.9,3.3,2.6c0,1.8-1.4,2.8-3.9,2.8h-3.3V18.1z M20.9,25.9h3.9
	c2.8,0,4.2,1,4.2,3c0,2-1.4,3-4,3h-4V25.9z"/>
</svg>
