<?xml version="1.0" encoding="utf-8"?>
<!-- Generator: Adobe Illustrator 24.0.1, SVG Export Plug-In . SVG Version: 6.00 Build 0)  -->
<svg version="1.1" id="Capa_1" xmlns="http://www.w3.org/2000/svg" xmlns:xlink="http://www.w3.org/1999/xlink" x="0px" y="0px"
	 viewBox="0 0 50 50" style="enable-background:new 0 0 50 50;" xml:space="preserve">
<style type="text/css">
	.st0{fill:#FFFFFF;}
</style>
<path class="st0" d="M24.5,2C15.8,2,14,6.5,14,9.1V14h10v1H9.1C5.8,15,2,17.6,2,25s3.8,10,7.1,10H15v-6c0-2.2,1.8-4,4-4h12
	c1.7,0,3-1.3,3-3V9.1C34,5.6,30.7,2,24.5,2z M20,7c1.1,0,2,0.9,2,2c0,1.1-0.9,2-2,2s-2-0.9-2-2C18,7.9,18.9,7,20,7z M35,15v7
	c0,2.2-1.8,4-4,4H19c-1.7,0-3,1.3-3,3v11.9c0,3.5,3.3,7.1,9.5,7.1c8.7,0,10.5-4.5,10.5-7.1V36H26v-1h14.9c3.3,0,7.1-2.6,7.1-10
	s-3.8-10-7.1-10H35z M30,39c1.1,0,2,0.9,2,2s-0.9,2-2,2s-2-0.9-2-2S28.9,39,30,39z"/>
</svg>
