<?xml version="1.0" encoding="utf-8"?>
<!-- Generator: Adobe Illustrator 24.0.1, SVG Export Plug-In . SVG Version: 6.00 Build 0)  -->
<svg version="1.1" id="Capa_1" xmlns="http://www.w3.org/2000/svg" xmlns:xlink="http://www.w3.org/1999/xlink" x="0px" y="0px"
	 viewBox="0 0 50 50" style="enable-background:new 0 0 50 50;" xml:space="preserve">
<style type="text/css">
	.st0{fill:#FFFFFF;}
</style>
<g transform="">
	<g>
		<g transform="scale(5.33333,5.33333)">
			<path class="st0" d="M3,3.7l1.6-0.9c0,0,0.1,0,0.1,0l1.6,0.9c0,0,0.1,0.1,0.1,0.1v1.9c0,0,0,0.1-0.1,0.1L4.8,6.7c0,0-0.1,0-0.1,0
				L3,5.8c0,0-0.1-0.1-0.1-0.1V3.8C2.9,3.7,3,3.7,3,3.7"/>
			<path class="st0" d="M8.9,4.5L6.9,1.2C6.9,1.1,6.7,1,6.6,1H2.8C2.6,1,2.5,1.1,2.4,1.2L0.5,4.5c-0.1,0.1-0.1,0.3,0,0.4l1.9,3.3
				c0.1,0.1,0.2,0.2,0.3,0.2h3.8c0.1,0,0.3-0.1,0.3-0.2l1.9-3.3C8.9,4.8,8.9,4.6,8.9,4.5 M7.2,6.2L4.8,7.6c0,0-0.1,0-0.1,0L2.2,6.2
				c0,0-0.1-0.1-0.1-0.1V3.3c0,0,0-0.1,0.1-0.1l2.4-1.4c0,0,0.1,0,0.1,0l2.4,1.4c0,0,0.1,0.1,0.1,0.1v2.8C7.2,6.1,7.2,6.2,7.2,6.2z"
				/>
		</g>
	</g>
</g>
</svg>
