<?xml version="1.0" encoding="utf-8"?>
<!-- Generator: Adobe Illustrator 24.0.1, SVG Export Plug-In . SVG Version: 6.00 Build 0)  -->
<svg version="1.1" id="Слой_1" xmlns="http://www.w3.org/2000/svg" xmlns:xlink="http://www.w3.org/1999/xlink" x="0px" y="0px"
	 viewBox="0 0 50 50" style="enable-background:new 0 0 50 50;" xml:space="preserve">
<style type="text/css">
	.st0{fill:#FFFFFF;}
</style>
<path class="st0" d="M45,4H5C4.4,4,4,4.4,4,5v40c0,0.6,0.4,1,1,1h40c0.6,0,1-0.4,1-1V5C46,4.4,45.6,4,45,4z M29,26.4h-5V42h-4V26.4
	h-5V23h14V26.4z M30.1,41.1V37c0,0,2.3,1.7,5,1.7c2.7,0,2.6-1.8,2.6-2c0-2.6-7.7-2.6-7.7-8.3c0-7.8,11.3-4.7,11.3-4.7l-0.1,3.7
	c0,0-1.9-1.3-4-1.3s-2.9,1-2.9,2.1c0,2.8,7.8,2.5,7.8,8.1C42,45,30.1,41.1,30.1,41.1z"/>
</svg>
