<?xml version="1.0" encoding="utf-8"?>
<!-- Generator: Adobe Illustrator 24.0.1, SVG Export Plug-In . SVG Version: 6.00 Build 0)  -->
<svg version="1.1" id="Layer_1" xmlns="http://www.w3.org/2000/svg" xmlns:xlink="http://www.w3.org/1999/xlink" x="0px" y="0px"
	 viewBox="0 0 32 32" style="enable-background:new 0 0 32 32;" xml:space="preserve">
<style type="text/css">
	.st0{fill:#FFFFFF;}
</style>
<g>
	<path class="st0" d="M21.3,6C21.1,6,21,6.1,21,6.3V15h2V7.2c0-0.2-0.1-0.3-0.2-0.4L21.5,6C21.4,6,21.4,6,21.3,6L21.3,6z"/>
</g>
<g>
	<path class="st0" d="M15.4,25.7c-0.1,0-0.2,0-0.3-0.1L14.2,25c-0.1-0.1-0.1-0.1,0-0.1c0.2-0.1,0.2-0.1,0.4-0.2c0,0,0,0,0.1,0
		l0.7,0.4c0,0,0.1,0,0.1,0l2.8-1.6c0,0,0,0,0-0.1v-3.2c0,0,0-0.1,0-0.1l-2.8-1.6c0,0-0.1,0-0.1,0l-2.8,1.6c0,0,0,0,0,0.1v3.2
		c0,0,0,0.1,0,0.1l0.8,0.4c0.4,0.2,0.7,0,0.7-0.3v-3.2c0,0,0-0.1,0.1-0.1h0.4c0,0,0.1,0,0.1,0.1v3.2c0,0.6-0.3,0.9-0.8,0.9
		c-0.2,0-0.3,0-0.6-0.2L12.3,24c-0.2-0.1-0.3-0.3-0.3-0.5v-3.2c0-0.2,0.1-0.4,0.3-0.5l2.8-1.6c0.2-0.1,0.4-0.1,0.6,0l2.8,1.6
		c0.2,0.1,0.3,0.3,0.3,0.5v3.2c0,0.2-0.1,0.4-0.3,0.5l-2.8,1.6C15.6,25.6,15.5,25.7,15.4,25.7L15.4,25.7z M17.7,22.5
		c0-0.6-0.4-0.8-1.3-0.9c-0.9-0.1-1-0.2-1-0.4c0-0.2,0.1-0.4,0.7-0.4c0.6,0,0.8,0.1,0.9,0.5c0,0,0,0.1,0.1,0.1h0.4c0,0,0,0,0.1,0
		c0,0,0,0,0-0.1c-0.1-0.7-0.5-1-1.4-1c-0.8,0-1.3,0.3-1.3,0.9c0,0.6,0.5,0.8,1.2,0.9c0.9,0.1,1,0.2,1,0.4c0,0.3-0.3,0.4-0.8,0.4
		c-0.7,0-0.9-0.2-1-0.6c0,0,0-0.1-0.1-0.1h-0.4c0,0-0.1,0-0.1,0.1c0,0.5,0.3,1,1.5,1C17.2,23.4,17.7,23.1,17.7,22.5L17.7,22.5z
		 M20.3,20c0,0.3-0.2,0.5-0.5,0.5s-0.5-0.2-0.5-0.5c0-0.3,0.3-0.5,0.5-0.5C20.1,19.5,20.3,19.7,20.3,20z M20.2,20
		c0-0.3-0.2-0.5-0.5-0.5c-0.2,0-0.5,0.2-0.5,0.5s0.2,0.5,0.5,0.5C20,20.5,20.2,20.3,20.2,20z M20,20.3h-0.1c0,0,0-0.2,0-0.2
		c0,0,0-0.1-0.1-0.1h-0.1v0.2h-0.1v-0.6h0.2c0.1,0,0.2,0,0.2,0.2c0,0.1-0.1,0.1-0.1,0.2c0.1,0,0.1,0.1,0.1,0.1
		C20,20.2,20,20.3,20,20.3L20,20.3z M19.9,19.9C19.9,19.8,19.8,19.8,19.9,19.9l-0.2-0.1V20L19.9,19.9C19.9,20,19.9,19.9,19.9,19.9z
		 M14.9,16.7L14.9,16.7L14.9,16.7L14.9,16.7L14.9,16.7z"/>
</g>
<g>
	<path class="st0" d="M6.7,12.8l-3-1.7C3.7,11,3.6,11,3.5,11s-0.2,0-0.3,0.1l-3,1.7C0.1,12.9,0,13.1,0,13.3v4.5
		c0,0.2,0.2,0.4,0.4,0.2l1.3-0.8C1.9,17.1,2,16.9,2,16.8v-2.6l1.5-0.9L5,14.1v2.6c0,0.2,0.1,0.3,0.2,0.4L6.6,18
		c0.2,0.1,0.4,0,0.4-0.2v-4.5C7,13.1,6.9,12.9,6.7,12.8z"/>
</g>
<g>
	<path class="st0" d="M8,13.3v3.5c0,0.2,0.1,0.3,0.3,0.4l3,1.7c0.2,0.1,0.4,0.1,0.5,0l3-1.7c0.2-0.1,0.3-0.3,0.3-0.4v-3.5
		c0-0.2-0.1-0.3-0.3-0.4l-3-1.7c-0.2-0.1-0.4-0.1-0.5,0l-3,1.7C8.1,12.9,8,13.1,8,13.3z"/>
</g>
<g>
	<path class="st0" d="M19.5,13.2l1.5,0.9v1.8l-1.5,0.9L18,15.9v-1.8L19.5,13.2 M19.5,11c-0.1,0-0.2,0-0.3,0.1l-3,1.7
		c-0.2,0.1-0.3,0.3-0.3,0.4v3.5c0,0.2,0.1,0.3,0.3,0.4l3,1.7c0.1,0,0.2,0.1,0.3,0.1s0.2,0,0.3-0.1l3-1.7c0.2-0.1,0.3-0.3,0.3-0.4
		v-3.5c0-0.2-0.1-0.3-0.3-0.4l-3-1.7C19.7,11,19.6,11,19.5,11L19.5,11z"/>
</g>
<g>
	<g>
		<path class="st0" d="M29.1,17.7L26,15.9v-1.8l1.5-0.9l1.5,0.9c0,0,0,0.9,0,1.3c0,0.2,0.1,0.2,0.2,0.1c0.4-0.2,1.5-0.9,1.5-0.9
			c0.2-0.1,0.2-0.3,0.2-0.4v-0.9c0-0.2-0.1-0.3-0.3-0.4l-3-1.7c-0.1,0-0.2-0.1-0.3-0.1s-0.2,0-0.3,0.1l-3,1.7
			c-0.2,0.1-0.3,0.3-0.3,0.4v3.5c0,0.2,0.1,0.3,0.3,0.4l2.9,1.8c0.2,0.1,0.4,0.1,0.5,0l1.4-0.8C29.2,18,29.2,17.8,29.1,17.7z"/>
	</g>
</g>
<g>
	<polygon class="st0" points="26.6,14.5 26.6,15.5 27.5,16 28.4,15.5 28.4,14.5 27.5,14 	"/>
</g>
</svg>
