<?xml version="1.0" encoding="utf-8"?>
<!-- Generator: Adobe Illustrator 24.0.1, SVG Export Plug-In . SVG Version: 6.00 Build 0)  -->
<svg version="1.1" id="Capa_1" xmlns="http://www.w3.org/2000/svg" xmlns:xlink="http://www.w3.org/1999/xlink" x="0px" y="0px"
	 viewBox="0 0 48 48" style="enable-background:new 0 0 48 48;" xml:space="preserve">
<style type="text/css">
	.st0{fill:#FFFFFF;}
</style>
<g>
	<g transform="scale(5.33333,5.33333)">
		<path class="st0" d="M4.5,1.8c-1.2,0-2,0.6-2.3,1.8c0.5-0.6,1-0.8,1.6-0.7C4.2,3,4.4,3.3,4.7,3.5c0.4,0.4,1,1,2.1,1
			c1.2,0,2-0.6,2.3-1.8C8.6,3.3,8,3.5,7.4,3.4C7.1,3.3,6.8,3,6.6,2.8C6.1,2.3,5.6,1.8,4.5,1.8z M2.3,4.5c-1.2,0-2,0.6-2.3,1.8
			c0.5-0.6,1-0.8,1.6-0.7C1.9,5.7,2.2,6,2.4,6.2c0.4,0.4,1,1,2.1,1c1.2,0,2-0.6,2.3-1.8C6.3,6,5.8,6.2,5.2,6.1
			C4.8,6,4.6,5.7,4.3,5.5C3.9,5,3.4,4.5,2.3,4.5z"/>
	</g>
</g>
</svg>
