<?xml version="1.0" encoding="utf-8"?>
<!-- Generator: Adobe Illustrator 24.0.1, SVG Export Plug-In . SVG Version: 6.00 Build 0)  -->
<svg version="1.1" id="Capa_1" xmlns="http://www.w3.org/2000/svg" xmlns:xlink="http://www.w3.org/1999/xlink" x="0px" y="0px"
	 viewBox="0 0 50 50" style="enable-background:new 0 0 50 50;" xml:space="preserve">
<style type="text/css">
	.st0{fill:#FFFFFF;fill-opacity:0;}
	.st1{fill:#FFFFFF;}
</style>
<g>
	<g transform="scale(5.33333,5.33333)">
		<path class="st0" d="M8.2,3.4c0,4-3.5,5.2-3.5,5.2S1.2,7.4,1.2,3.4c0-0.5,0-0.9,0.1-1.2c0.1-0.5,0.4-0.9,0.9-1
			C2.7,1,3.7,0.8,4.7,0.8s2,0.2,2.6,0.4c0.5,0.1,0.8,0.5,0.9,1C8.2,2.5,8.2,2.9,8.2,3.4z"/>
		<path class="st1" d="M4.7,1.4c1,0,1.9,0.2,2.4,0.4C7.4,1.8,7.5,2,7.6,2.2c0,0.4,0.1,0.8,0.1,1.2c0,3-2.2,4.3-2.9,4.6
			C4,7.6,1.8,6.4,1.8,3.4c0-0.4,0-0.8,0.1-1.2C1.8,2,2,1.8,2.2,1.7C2.8,1.6,3.7,1.4,4.7,1.4 M4.7,0.8c-1,0-2,0.2-2.6,0.4
			c-0.4,0.1-0.8,0.5-0.8,1c0,0.3-0.1,0.8-0.1,1.2c0,4,3.5,5.2,3.5,5.2s3.5-1.2,3.5-5.2c0-0.5,0-0.9-0.1-1.2c-0.1-0.5-0.4-0.9-0.9-1
			C6.7,1,5.7,0.8,4.7,0.8z"/>
		<path class="st1" d="M4.5,5.5h0.4V7H4.5V5.5z"/>
		<path class="st1" d="M4.7,2c0,0-1.2,1-1.2,2.5c0,1,0.6,1.7,1,2l0.2-0.6l0.2,0.6c0.3-0.3,1-0.9,1-2C5.9,2.9,4.7,2,4.7,2z"/>
		<path class="st1" d="M4.7,2c0,0-1.2,1-1.2,2.5c0,1,0.6,1.7,1,2l0.2-0.6V2z"/>
	</g>
</g>
</svg>
