<?xml version="1.0" encoding="utf-8"?>
<!-- Generator: Adobe Illustrator 24.0.1, SVG Export Plug-In . SVG Version: 6.00 Build 0)  -->
<svg version="1.1" id="Capa_1" xmlns="http://www.w3.org/2000/svg" xmlns:xlink="http://www.w3.org/1999/xlink" x="0px" y="0px"
	 viewBox="0 0 50 50" style="enable-background:new 0 0 50 50;" xml:space="preserve">
<style type="text/css">
	.st0{fill:#FFFFFF;}
</style>
<path class="st0" d="M25,12C11.5,12,1,17.7,1,25s10.5,13,24,13s24-5.7,24-13S38.5,12,25,12z M22.5,16h2.6l-0.8,4h2.3
	c1.5,0,2.5,0.2,3,0.7c0.6,0.5,0.7,1.4,0.5,2.5l-1,4.8h-2.7l1-4.4c0.1-0.6,0.1-1-0.1-1.3S26.7,22,26,22h-2.1l-1.3,6H20L22.5,16z
	 M11,20h5.3c2.5,0,4.1,1.7,3.5,4.2c-0.7,3-2.6,3.8-6,3.8h-1.6l-0.5,3H9L11,20z M32,20h5.3c2.5,0,4.1,1.7,3.5,4.2
	c-0.7,3-2.6,3.8-6,3.8h-1.6l-0.5,3H30L32,20z M13.3,22l-0.8,4h1.7c1.5,0,2.9-0.2,3.1-2.4c0.1-0.9-0.3-1.6-2-1.6H13.3z M34.3,22
	l-0.8,4h1.7c1.5,0,2.9-0.2,3.1-2.4c0.1-0.9-0.3-1.6-2-1.6H34.3z"/>
</svg>
