<?xml version="1.0" encoding="utf-8"?>
<!-- Generator: Adobe Illustrator 24.0.1, SVG Export Plug-In . SVG Version: 6.00 Build 0)  -->
<svg version="1.1" id="Capa_1" xmlns="http://www.w3.org/2000/svg" xmlns:xlink="http://www.w3.org/1999/xlink" x="0px" y="0px"
	 viewBox="0 0 50 50" style="enable-background:new 0 0 50 50;" xml:space="preserve">
<style type="text/css">
	.st0{fill:#FFFFFF;}
	.st1{display:none;fill:#FFFFFF;}
</style>
<path class="st0" d="M29.4,25c0,2.4-2,4.4-4.4,4.4s-4.4-2-4.4-4.4s2-4.4,4.4-4.4S29.4,22.6,29.4,25z"/>
<path class="st0" d="M25,30c-2.8,0-5-2.2-5-5s2.2-5,5-5s5,2.2,5,5S27.8,30,25,30z M25,21.2c-2.1,0-3.8,1.7-3.8,3.8s1.7,3.8,3.8,3.8
	s3.8-1.7,3.8-3.8S27.1,21.2,25,21.2z"/>
<g>
	<path class="st0" d="M49.4,25c0-3.5-3.6-6.5-9.4-8.5c0.7-3.3,0.8-6.3,0.2-8.6c-0.5-1.9-1.5-3.3-2.9-4.1c-0.8-0.5-1.8-0.7-2.8-0.7
		c-2.8,0-6.1,1.8-9.5,4.7c-3.4-3-6.7-4.7-9.5-4.7c-1.1,0-2,0.2-2.8,0.7C11.3,4.6,10.3,6,9.8,7.9c-0.6,2.3-0.5,5.3,0.2,8.6
		c-5.7,1.9-9.4,5-9.4,8.5s3.6,6.5,9.4,8.5c-0.7,3.3-0.8,6.3-0.2,8.6c0.5,1.9,1.5,3.3,2.9,4.1c0.8,0.5,1.8,0.7,2.8,0.7c0,0,0,0,0,0
		c2.8,0,6.1-1.8,9.5-4.7c3.4,3,6.7,4.7,9.5,4.7c0,0,0,0,0,0c1.1,0,2-0.2,2.8-0.7c1.4-0.8,2.4-2.2,2.9-4.1c0.6-2.3,0.5-5.3-0.2-8.6
		C45.7,31.5,49.4,28.5,49.4,25z M36.1,6c0.8,0.5,1.4,1.3,1.7,2.5c0.5,1.9,0.4,4.4-0.2,7.2c-2-0.5-4.2-0.9-6.5-1.2
		c-1.4-1.9-2.8-3.6-4.3-5.1c3-2.6,5.7-3.9,7.7-3.9C35.1,5.6,35.7,5.8,36.1,6z M32.2,29.1c-0.8,1.4-1.7,2.7-2.5,3.9
		c-1.5,0.1-3.1,0.2-4.7,0.2c-1.6,0-3.2-0.1-4.7-0.2c-0.8-1.2-1.7-2.5-2.5-3.9c-0.8-1.4-1.5-2.7-2.2-4.1c0.6-1.4,1.4-2.7,2.2-4.1
		c0.8-1.4,1.7-2.7,2.5-3.9c1.5-0.1,3.1-0.2,4.7-0.2c1.6,0,3.2,0.1,4.7,0.2c0.8,1.2,1.7,2.5,2.5,3.9c0.8,1.4,1.5,2.7,2.2,4.1
		C33.7,26.4,33,27.7,32.2,29.1z M35.7,28c0.5,1.3,0.9,2.6,1.3,3.8c-1.2,0.3-2.6,0.6-4,0.8c0.5-0.7,0.9-1.5,1.4-2.2
		C34.9,29.6,35.3,28.8,35.7,28z M25,38.7c-0.9-0.9-1.8-1.9-2.8-3.1c0.9,0,1.8,0.1,2.8,0.1c0.9,0,1.9,0,2.8-0.1
		C26.8,36.8,25.9,37.8,25,38.7z M17,32.6c-1.4-0.2-2.8-0.5-4-0.8c0.4-1.2,0.8-2.5,1.3-3.8c0.4,0.8,0.8,1.6,1.3,2.4
		C16.1,31.1,16.5,31.9,17,32.6z M14.3,22c-0.5-1.3-0.9-2.6-1.3-3.8c1.2-0.3,2.6-0.6,4-0.8c-0.5,0.7-0.9,1.5-1.4,2.2
		C15.1,20.4,14.7,21.2,14.3,22z M25,11.3c0.9,0.9,1.8,1.9,2.8,3.1c-0.9,0-1.8-0.1-2.8-0.1s-1.8,0-2.8,0.1
		C23.2,13.2,24.1,12.2,25,11.3z M34.4,19.6c-0.4-0.8-0.9-1.5-1.4-2.2c1.4,0.2,2.8,0.5,4,0.8c-0.4,1.2-0.8,2.5-1.3,3.8
		C35.3,21.2,34.9,20.4,34.4,19.6z M12.2,8.6c0.3-1.2,0.9-2.1,1.7-2.5c0.5-0.3,1-0.4,1.6-0.4c2,0,4.7,1.3,7.7,4
		c-1.5,1.5-2.9,3.2-4.3,5.1c-2.3,0.3-4.5,0.7-6.5,1.2C11.8,12.9,11.7,10.4,12.2,8.6z M3.1,25c0-2.2,2.8-4.5,7.5-6.1
		c0.6,2,1.3,4,2.2,6.1c-0.9,2.1-1.7,4.1-2.2,6.1C5.9,29.5,3.1,27.2,3.1,25z M15.5,44.4c-0.6,0-1.2-0.1-1.6-0.4
		c-0.8-0.5-1.4-1.3-1.7-2.5c-0.5-1.9-0.4-4.4,0.2-7.2c2,0.5,4.2,0.9,6.5,1.2c1.4,1.9,2.8,3.6,4.3,5.1C20.2,43,17.5,44.4,15.5,44.4z
		 M37.8,41.4c-0.3,1.2-0.9,2.1-1.7,2.5c-0.5,0.3-1,0.4-1.6,0.4c-2,0-4.7-1.3-7.7-3.9c1.5-1.5,2.9-3.2,4.3-5.1
		c2.3-0.3,4.5-0.7,6.5-1.2C38.2,37.1,38.3,39.6,37.8,41.4z M39.4,31.1c-0.6-2-1.3-4-2.2-6.1c0.9-2.1,1.7-4.1,2.2-6.1
		c4.7,1.6,7.5,3.9,7.5,6.1S44.1,29.5,39.4,31.1z"/>
	<path class="st1" d="M15.5,47.5c-1.2,0-2.2-0.3-3.2-0.8c-1.5-0.9-2.6-2.4-3.2-4.5c-0.6-2.2-0.6-5.1,0.1-8.4C3.4,31.8,0,28.6,0,25
		s3.4-6.8,9.3-8.9C8.6,12.8,8.6,10,9.2,7.8c0.6-2.1,1.6-3.6,3.2-4.5C15.5,1.5,20.1,2.8,25,7c4.9-4.2,9.5-5.5,12.7-3.7
		c1.5,0.9,2.6,2.4,3.2,4.4c0.6,2.2,0.6,5.1-0.1,8.4c5.9,2.1,9.3,5.3,9.3,8.9s-3.4,6.8-9.3,8.9c0.6,3.3,0.7,6.1,0.1,8.4
		c-0.6,2.1-1.6,3.6-3.2,4.4c-3.2,1.8-7.7,0.5-12.7-3.7C21.5,45.9,18.3,47.5,15.5,47.5z M15.5,3.7c-0.9,0-1.8,0.2-2.5,0.6
		c-1.2,0.7-2.1,2-2.6,3.7c-0.6,2.1-0.5,5,0.2,8.3l0.1,0.5l-0.5,0.2C4.5,19,1.2,21.9,1.2,25s3.3,6,8.9,7.9l0.5,0.2l-0.1,0.5
		c-0.7,3.3-0.8,6.2-0.2,8.3c0.5,1.7,1.3,3,2.6,3.7c0.7,0.4,1.6,0.6,2.5,0.6h0c2.5,0,5.7-1.6,9.1-4.6l0.4-0.4l0.4,0.4
		c3.3,3,6.6,4.6,9.1,4.6c0.9,0,1.8-0.2,2.5-0.6c1.2-0.7,2.1-2,2.6-3.7c0.6-2.1,0.5-5-0.2-8.3l-0.1-0.5l0.5-0.2
		c5.7-1.9,8.9-4.8,8.9-7.9c0-3.1-3.3-6-8.9-7.9l-0.5-0.2l0.1-0.5c0.7-3.3,0.8-6.2,0.2-8.3c-0.5-1.7-1.3-3-2.6-3.7
		c-0.7-0.4-1.6-0.6-2.5-0.6c-2.5,0-5.7,1.6-9.1,4.6L25,8.7l-0.4-0.4C21.2,5.4,18,3.7,15.5,3.7z M15.5,45c-0.7,0-1.4-0.2-1.9-0.5
		c-0.9-0.5-1.6-1.5-2-2.9c-0.5-1.9-0.4-4.5,0.2-7.5l0.1-0.6l0.6,0.2c2,0.5,4.1,0.9,6.4,1.2l0.3,0l0.2,0.2c1.3,1.8,2.8,3.5,4.2,5
		l0.5,0.5l-0.5,0.4C20.6,43.5,17.7,45,15.5,45z M12.9,35c-0.6,2.5-0.6,4.7-0.1,6.3c0.3,1.1,0.8,1.8,1.4,2.2c1.6,0.9,4.8-0.3,8.1-3.1
		C21,39,19.7,37.5,18.6,36C16.6,35.7,14.7,35.4,12.9,35z M34.5,45c-2.2,0-5.1-1.5-8.1-4.1l-0.5-0.4l0.5-0.5c1.5-1.5,2.9-3.2,4.2-5
		l0.2-0.2l0.3,0c2.3-0.2,4.4-0.6,6.4-1.2l0.6-0.2l0.1,0.6c0.6,3,0.7,5.6,0.2,7.5c-0.4,1.4-1,2.4-2,2.9C35.9,44.8,35.2,45,34.5,45z
		 M27.7,40.4c3.3,2.8,6.5,4,8.1,3.1c0.6-0.4,1-1.1,1.4-2.2c0.5-1.6,0.5-3.8-0.1-6.3c-1.8,0.4-3.7,0.8-5.7,1
		C30.3,37.5,29,39,27.7,40.4z M25,39.6l-0.4-0.5c-1-1-1.9-2-2.8-3.1l-0.9-1.1l1.4,0.1c1.8,0.1,3.7,0.1,5.5,0l1.4-0.1L28.2,36
		c-0.9,1.1-1.8,2.2-2.8,3.1L25,39.6z M23.6,36.3c0.4,0.5,0.9,1,1.4,1.5c0.5-0.5,0.9-1,1.4-1.5C25.5,36.3,24.5,36.3,23.6,36.3z
		 M25,33.8c-1.6,0-3.2-0.1-4.8-0.2l-0.3,0l-0.2-0.2c-0.9-1.3-1.8-2.6-2.5-3.9c-0.8-1.3-1.5-2.7-2.2-4.2L14.9,25l0.1-0.3
		c0.7-1.4,1.4-2.8,2.2-4.2c0.8-1.3,1.6-2.6,2.5-3.9l0.2-0.2l0.3,0c3.1-0.3,6.4-0.3,9.6,0l0.3,0l0.2,0.2c0.9,1.3,1.7,2.6,2.5,3.9
		c0.8,1.3,1.5,2.7,2.2,4.2l0.1,0.3L35,25.3c-0.7,1.4-1.4,2.8-2.2,4.2c-0.8,1.3-1.6,2.6-2.5,3.9l-0.2,0.2l-0.3,0
		C28.2,33.8,26.6,33.8,25,33.8z M20.6,32.4c2.9,0.2,5.9,0.2,8.8,0c0.8-1.2,1.6-2.4,2.3-3.6c0.7-1.2,1.4-2.5,2-3.8
		c-0.6-1.3-1.3-2.6-2-3.8c-0.7-1.2-1.5-2.4-2.3-3.6c-2.9-0.2-5.9-0.2-8.8,0c-0.8,1.2-1.6,2.4-2.3,3.6c-0.7,1.2-1.4,2.5-2,3.8
		c0.6,1.3,1.3,2.6,2,3.8C19,30,19.8,31.2,20.6,32.4z M31.7,33.4l0.8-1.2c0.5-0.7,0.9-1.5,1.4-2.2c0.5-0.8,0.9-1.6,1.3-2.4l0.6-1.2
		l0.5,1.3c0.5,1.3,1,2.6,1.3,3.9l0.2,0.6l-0.6,0.2c-1.3,0.3-2.6,0.6-4.1,0.8L31.7,33.4z M35.6,29.5c-0.2,0.4-0.4,0.8-0.7,1.2
		c-0.2,0.4-0.4,0.7-0.6,1.1c0.7-0.1,1.3-0.3,1.9-0.4C36,30.7,35.8,30.1,35.6,29.5z M18.3,33.4l-1.4-0.2c-1.4-0.2-2.8-0.5-4.1-0.8
		l-0.6-0.2l0.2-0.6c0.4-1.3,0.8-2.6,1.3-3.8l0.5-1.3l0.6,1.2c0.4,0.8,0.8,1.6,1.3,2.4c0.4,0.8,0.9,1.5,1.4,2.2L18.3,33.4z
		 M13.8,31.3c0.6,0.1,1.3,0.3,1.9,0.4c-0.2-0.3-0.4-0.7-0.6-1.1c-0.2-0.4-0.5-0.8-0.7-1.2C14.2,30.1,14,30.7,13.8,31.3z M39,31.9
		l-0.2-0.6c-0.6-1.9-1.3-4-2.2-6L36.5,25l0.1-0.3c0.9-2,1.7-4.1,2.2-6l0.2-0.6l0.6,0.2c4.9,1.7,7.9,4.2,7.9,6.7c0,2.5-3,5-7.9,6.7
		L39,31.9z M37.8,25c0.8,1.8,1.4,3.5,2,5.3c3.9-1.5,6.4-3.5,6.4-5.3c0-1.8-2.5-3.8-6.4-5.3C39.3,21.5,38.6,23.2,37.8,25z M11,31.9
		l-0.6-0.2C5.5,30,2.5,27.5,2.5,25s3-5,7.9-6.7l0.6-0.2l0.2,0.6c0.6,1.9,1.3,4,2.2,6l0.1,0.3l-0.1,0.3c-0.9,2-1.7,4-2.2,6L11,31.9z
		 M10.2,19.7c-3.9,1.5-6.4,3.5-6.4,5.3c0,1.8,2.5,3.8,6.4,5.3c0.5-1.7,1.2-3.5,2-5.3C11.4,23.2,10.7,21.5,10.2,19.7z M14.2,23.5
		l-0.5-1.3c-0.5-1.3-1-2.6-1.3-3.9l-0.2-0.6l0.6-0.2c1.3-0.3,2.6-0.6,4.1-0.8l1.4-0.2l-0.8,1.2c-0.5,0.7-0.9,1.5-1.4,2.2
		c-0.5,0.8-0.9,1.6-1.3,2.4L14.2,23.5z M13.8,18.7c0.2,0.6,0.4,1.2,0.6,1.8c0.2-0.4,0.4-0.8,0.7-1.2c0.2-0.4,0.4-0.7,0.6-1.1
		C15,18.4,14.4,18.5,13.8,18.7z M35.8,23.5l-0.6-1.2c-0.4-0.8-0.8-1.6-1.3-2.4c-0.4-0.8-0.9-1.5-1.4-2.2l-0.8-1.2l1.4,0.2
		c1.4,0.2,2.8,0.5,4.1,0.8l0.6,0.2l-0.2,0.6c-0.4,1.3-0.8,2.6-1.3,3.9L35.8,23.5z M34.3,18.3c0.2,0.3,0.4,0.7,0.6,1.1
		c0.2,0.4,0.5,0.8,0.7,1.2c0.2-0.6,0.4-1.2,0.6-1.8C35.6,18.5,34.9,18.4,34.3,18.3z M38.1,16.6l-0.6-0.2c-2-0.5-4.1-0.9-6.4-1.2
		l-0.3,0L30.6,15c-1.3-1.8-2.8-3.5-4.2-5l-0.5-0.5l0.5-0.4c4-3.5,7.8-4.9,10-3.6C37.4,6,38,7,38.4,8.4c0.5,1.9,0.4,4.5-0.2,7.5
		L38.1,16.6z M31.4,14c2,0.2,3.9,0.6,5.7,1c0.6-2.4,0.7-4.5,0.1-6.3c-0.4-1-0.8-1.8-1.4-2.2c-1.6-0.9-4.8,0.3-8.1,3.1
		C29,11,30.3,12.5,31.4,14z M11.9,16.6l-0.1-0.6c-0.6-3-0.7-5.6-0.2-7.5c0.4-1.4,1-2.4,2-2.9c2.2-1.3,6,0.1,10,3.6l0.5,0.4L23.7,10
		c-1.5,1.5-2.9,3.2-4.2,5l-0.2,0.2l-0.3,0c-2.3,0.2-4.4,0.6-6.4,1.2L11.9,16.6z M15.5,6.2c-0.5,0-0.9,0.1-1.3,0.3
		c-0.6,0.4-1,1.1-1.4,2.2c-0.7,1.6-0.6,3.8,0.1,6.3c1.8-0.4,3.7-0.8,5.7-1c1.2-1.6,2.4-3.1,3.7-4.4C19.7,7.5,17.3,6.2,15.5,6.2z
		 M20.9,15l0.9-1.1c0.9-1.1,1.8-2.2,2.8-3.1l0.4-0.4l0.4,0.4c1,1,1.9,2,2.8,3.1l0.9,1.1L27.7,15c-1.8-0.1-3.7-0.1-5.4,0L20.9,15z
		 M25,13.7c0.5,0,0.9,0,1.4,0c-0.4-0.5-0.9-1-1.4-1.5c-0.5,0.5-0.9,1-1.4,1.5C24.1,13.7,24.5,13.7,25,13.7z"/>
</g>
</svg>
