<?xml version="1.0" encoding="utf-8"?>
<!-- Generator: Adobe Illustrator 24.0.1, SVG Export Plug-In . SVG Version: 6.00 Build 0)  -->
<svg version="1.1" id="Capa_1" xmlns="http://www.w3.org/2000/svg" xmlns:xlink="http://www.w3.org/1999/xlink" x="0px" y="0px"
	 viewBox="0 0 50 50" style="enable-background:new 0 0 50 50;" xml:space="preserve">
<style type="text/css">
	.st0{fill:#FFFFFF;}
</style>
<g>
	<g transform="scale(5.33333,5.33333)">
		<path class="st0" d="M0,6.8h0.4V5.5l0.5,1.2C1,6.8,1,6.8,1.2,6.8s0.3-0.1,0.3-0.2l0.5-1.2v1.4h0.4V5.4c0-0.1-0.1-0.2-0.2-0.2
			C2,5.1,1.8,5.2,1.7,5.4L1.2,6.6L0.7,5.4C0.6,5.2,0.4,5.1,0.2,5.2C0.1,5.2,0,5.3,0,5.4L0,6.8L0,6.8L0,6.8z"/>
		<path class="st0" d="M2.6,5.7H3v0.8c0,0,0,0.1,0.2,0.1c0.1,0,0.6,0,0.6,0V5.7h0.4c0,0,0,1.2,0,1.2c0,0.3-0.4,0.3-0.5,0.3h-1V7
			c0,0,0.9,0,0.9,0c0.2,0,0.2-0.1,0.2-0.2v0H3.2c-0.3,0-0.5-0.1-0.5-0.3C2.6,6.5,2.6,5.7,2.6,5.7z"/>
		<path class="st0" d="M4.3,6.8h0.9c0.1,0,0.2,0,0.3-0.1c0.2-0.1,0.2-0.2,0.2-0.3V6.2c0-0.3-0.4-0.3-0.6-0.3H4.9
			c-0.1,0-0.2-0.1-0.2-0.2V5.5c0-0.1,0.1-0.2,0.2-0.2c0.2,0,0.9,0,0.9,0V5.2H4.9c-0.1,0-0.6,0-0.6,0.4v0.2c0,0.2,0.1,0.3,0.5,0.3
			c0,0,0.1,0,0.1,0c0,0,0.4,0,0.4,0c0.2,0,0.2,0.2,0.2,0.2v0.2c0,0,0,0.2-0.2,0.2c0,0-0.9,0-0.9,0L4.3,6.8L4.3,6.8z"/>
		<path class="st0" d="M7.9,6.5c0,0.2,0.1,0.4,0.5,0.4c0,0,0.1,0,0.1,0h0.9V6.7H8.5c-0.2,0-0.3-0.1-0.3-0.2V5.2H7.9L7.9,6.5z"/>
		<path class="st0" d="M6,6.5V5.5c0-0.2,0.1-0.3,0.4-0.4h0.1h0.7h0.1c0.3,0,0.4,0.2,0.4,0.4v0.9c0,0.2,0,0.2-0.2,0.3L7.8,7H7.4
			L7.2,6.8H6.9l-0.4,0c-0.1,0-0.1,0-0.2,0C6.1,6.8,6,6.7,6,6.5z M6.4,6.5c0,0.1,0.1,0.2,0.2,0.2H7L6.7,6.5h0.4l0.1,0.1
			c0,0,0,0,0-0.1c0-0.1,0-0.9,0-0.9c0-0.1-0.1-0.2-0.2-0.2H6.6c-0.1,0-0.2,0.1-0.2,0.2C6.4,5.6,6.4,6.5,6.4,6.5z"/>
		<path class="st0" d="M9,5C8.8,5,8.7,5,8.5,5c0,0-0.1,0-0.1,0.1c0,0,0,0.1,0,0.1c0,0.1,0.1,0.1,0.1,0.2c0.1,0,0.1,0.1,0.2,0.1
			C8.9,5.5,9,5.5,9.1,5.6c0.1,0,0.1,0.1,0.2,0.1c0,0,0,0.1,0.1,0.1c0,0,0,0,0,0c0,0,0-0.1,0-0.1c0,0,0,0-0.1-0.1
			C9.1,5.5,9,5.4,8.9,5.4C8.9,5.3,8.7,5.2,8.7,5.1c0,0,0,0,0,0c0.1,0,0.1,0,0.2,0C8.9,5.1,9,5.1,9,5C9.1,5,9.1,5,9.2,5c0,0,0,0,0,0
			c0,0-0.1-0.1-0.1-0.1C8.9,4.7,8.8,4.6,8.7,4.5C8.6,4.5,8.5,4.5,8.4,4.4c0,0-0.1,0-0.1,0c0-0.1-0.1-0.1-0.1-0.2C8.1,4,8,3.9,8,3.7
			c0-0.1-0.1-0.2-0.1-0.3C7.6,3,7.3,2.8,6.9,2.5C6.8,2.5,6.7,2.4,6.6,2.4c-0.1,0-0.1,0-0.2,0c0,0-0.1-0.1-0.1-0.1
			C6.1,2.2,5.7,2,5.6,2.3C5.6,2.4,5.7,2.6,5.8,2.7c0,0.1,0.1,0.1,0.1,0.2c0,0,0,0.1,0,0.1c0,0.1,0.1,0.2,0.2,0.3
			c0,0.1,0.1,0.1,0.1,0.2c0,0,0.1,0,0.1,0.1c0,0,0,0.1-0.1,0.2C6.1,4.1,6.2,4.4,6.3,4.6c0,0.1,0.1,0.2,0.3,0.1
			c0.1,0,0.1-0.2,0.1-0.3c0,0,0,0,0-0.1c0,0,0,0,0,0c0,0.1,0.1,0.1,0.1,0.2C6.9,4.7,7,4.9,7.1,4.9c0.1,0,0.1,0.1,0.2,0.1
			c0,0,0,0,0,0c0,0,0,0,0,0c0,0,0,0-0.1-0.1c0,0-0.1-0.1-0.1-0.1C7,4.7,6.9,4.6,6.8,4.4c0-0.1-0.1-0.2-0.1-0.2c0,0,0-0.1,0-0.1
			c0,0.1-0.1,0.1-0.1,0.2c0,0.1-0.1,0.2-0.1,0.4c0,0,0,0,0,0c-0.1,0-0.1-0.1-0.1-0.2C6.3,4.3,6.3,4,6.3,3.8c0-0.1,0.1-0.2,0.1-0.3
			c0,0-0.1-0.1-0.1-0.1c0,0-0.1-0.1-0.1-0.2C6.1,3.1,6.1,3,6,2.8c0-0.1-0.1-0.1-0.1-0.2c0-0.1-0.1-0.1-0.1-0.2c0,0,0-0.1,0-0.1
			c0,0,0,0,0,0c0,0,0.1,0,0.2,0c0.1,0,0.2,0.1,0.2,0.1c0,0,0.1,0.1,0.1,0.1c0,0,0,0,0.1,0c0.1,0,0.2,0,0.2,0c0.1,0,0.3,0.1,0.4,0.2
			c0.3,0.2,0.6,0.5,0.8,0.9c0,0.1,0,0.1,0.1,0.2C7.9,3.9,7.9,4,8,4.1C8,4.2,8.1,4.4,8.2,4.5c0,0.1,0.2,0.1,0.3,0.1
			c0,0,0.1,0,0.2,0.1c0.1,0.1,0.2,0.1,0.3,0.2C8.9,4.8,9,4.9,9,5L9,5z"/>
		<path class="st0" d="M6.5,2.8c0,0-0.1,0-0.1,0c0,0,0,0,0,0C6.4,2.8,6.4,2.8,6.5,2.8c-0.1,0.1,0,0.1,0,0.1c0,0,0,0.1,0.1,0.1
			c0,0,0,0,0,0c0,0,0.1-0.1,0.1-0.1C6.5,2.9,6.5,2.9,6.5,2.8C6.5,2.8,6.5,2.8,6.5,2.8z"/>
	</g>
</g>
</svg>
