<?xml version="1.0" encoding="UTF-8"?>
<svg id="Capa_1" data-name="Capa 1" xmlns="http://www.w3.org/2000/svg" viewBox="0 0 400 288.53">
  <defs>
    <style>
      .cls-1 {
        fill: #fff;
      }

      .cls-2 {
        fill: #725858;
      }

      .cls-3 {
        fill: #1a56db;
      }

      .cls-4 {
        fill: #70cc40;
      }

      .cls-5 {
        fill: #f56132;
      }

      .cls-6 {
        fill: #ffbc0e;
      }

      .cls-7 {
        fill: #093f68;
      }
    </style>
  </defs>
  <g id="_03_web_development_outline" data-name=" 03 web development outline">
    <path class="cls-3" d="M365.31,265.89c.46-1.57,.7-3.2,.71-4.84,0-13.8-16.79-24.99-37.58-24.99s-37.58,11.18-37.58,24.99c0,1.64,.25,3.27,.72,4.84h73.74Z"/>
    <path class="cls-7" d="M365.31,267.57h-73.74c-.77,.03-1.46-.47-1.68-1.21-.52-1.72-.78-3.51-.79-5.31,0-14.71,17.62-26.67,39.26-26.67s39.26,11.96,39.26,26.67c0,1.8-.27,3.59-.79,5.31-.2,.69-.81,1.17-1.53,1.21Zm-72.44-3.36h71.13c.22-1.04,.33-2.1,.34-3.16,0-12.86-16.1-23.31-35.9-23.31s-35.9,10.45-35.9,23.31c0,1.06,.12,2.12,.34,3.16Z"/>
    <path class="cls-7" d="M328.43,252.66c-.93,0-1.68-.75-1.68-1.68v-14.91c0-.93,.75-1.68,1.68-1.68s1.68,.75,1.68,1.68v14.91c0,.93-.75,1.68-1.68,1.68Z"/>
    <rect class="cls-2" x="1.68" y="265.89" width="396.64" height="20.96" rx="9.69" ry="9.69"/>
    <path class="cls-7" d="M388.63,288.53H11.37c-6.27,0-11.36-5.09-11.37-11.37v-1.58c0-6.27,5.09-11.36,11.37-11.37H388.63c6.27,0,11.36,5.09,11.37,11.37v1.58c0,6.27-5.09,11.36-11.37,11.37ZM11.37,267.57c-4.42,0-8,3.59-8.01,8.01v1.58c0,4.42,3.59,8,8.01,8.01H388.63c4.42,0,8-3.59,8.01-8.01v-1.58c0-4.42-3.59-8-8.01-8.01H11.37Z"/>
    <rect class="cls-3" x="63.49" y="15.15" width="273.01" height="206.36" rx="16.78" ry="16.78"/>
    <path class="cls-7" d="M319.73,223.19H80.27c-10.2,0-18.47-8.27-18.47-18.47h0V31.92c0-10.2,8.27-18.47,18.47-18.47h239.46c10.2,0,18.47,8.27,18.47,18.47V204.72c0,10.2-8.27,18.47-18.47,18.47h0ZM80.27,16.83c-8.35,0-15.11,6.77-15.11,15.11V204.72c0,8.35,6.77,15.11,15.11,15.11h239.46c8.35,0,15.11-6.77,15.11-15.11V31.92c0-8.35-6.77-15.11-15.11-15.11l-239.46,.02Z"/>
    <polygon class="cls-3" points="248.4 265.89 151.6 265.89 161.71 221.51 238.29 221.51 248.4 265.89"/>
    <path class="cls-7" d="M248.4,267.57h-96.79c-.51,0-.99-.24-1.31-.64-.31-.4-.43-.92-.32-1.41l10.08-44.38c.18-.78,.88-1.33,1.68-1.31h76.57c.8-.02,1.5,.53,1.68,1.31l10.08,44.38c.11,.49,0,1.01-.32,1.41-.32,.41-.82,.65-1.34,.64Zm-94.68-3.36h92.56l-9.34-41.02h-73.89l-9.34,41.02Z"/>
    <rect class="cls-1" x="82.1" y="32.34" width="235.79" height="153.17"/>
    <path class="cls-7" d="M317.9,187.19H82.1c-.93,0-1.68-.75-1.68-1.68V32.34c0-.93,.75-1.68,1.68-1.68h235.8c.93,0,1.68,.75,1.68,1.68V185.51c0,.93-.75,1.68-1.68,1.68Zm-234.12-3.36h232.44V34.02H83.78V183.83Z"/>
    <rect class="cls-1" x="82.1" y="32.34" width="69.5" height="153.17"/>
    <path class="cls-7" d="M151.6,187.19H82.1c-.93,0-1.68-.75-1.68-1.68V32.34c0-.93,.75-1.68,1.68-1.68h69.5c.93,0,1.68,.75,1.68,1.68V185.51c0,.93-.75,1.68-1.68,1.68Zm-67.83-3.36h66.15V34.02H83.78V183.83Z"/>
    <rect class="cls-7" x="151.6" y="32.34" width="166.28" height="153.17"/>
    <path class="cls-7" d="M317.9,187.19H151.65c-.93,0-1.68-.75-1.68-1.68V32.34c0-.93,.75-1.68,1.68-1.68h166.25c.93,0,1.68,.75,1.68,1.68V185.51c0,.93-.75,1.68-1.68,1.68Zm-164.57-3.36h162.89V34.02H153.33V183.83Z"/>
    <path class="cls-7" d="M130.68,53.4h-28.21c-.93,0-1.68-.75-1.68-1.68s.75-1.68,1.68-1.68h28.21c.93,0,1.68,.75,1.68,1.68s-.75,1.68-1.68,1.68Z"/>
    <path class="cls-7" d="M135.52,69.92h-23.78c-.93,0-1.68-.75-1.68-1.68s.75-1.68,1.68-1.68h23.78c.93,0,1.68,.75,1.68,1.68s-.75,1.68-1.68,1.68Z"/>
    <path class="cls-7" d="M138.74,86.45h-19.75c-.93,0-1.68-.75-1.68-1.68s.75-1.68,1.68-1.68h19.75c.93,0,1.68,.75,1.68,1.68s-.75,1.68-1.68,1.68h0Z"/>
    <path class="cls-7" d="M132.29,102.97h-24.99c-.93,0-1.68-.75-1.68-1.68s.75-1.68,1.68-1.68h24.99c.93,0,1.68,.75,1.68,1.68s-.75,1.68-1.68,1.68h0Z"/>
    <path class="cls-7" d="M125.58,119.5h-23.11c-.93,0-1.68-.75-1.68-1.68s.75-1.68,1.68-1.68h23.11c.93,0,1.68,.75,1.68,1.68s-.75,1.68-1.68,1.68Z"/>
    <path class="cls-7" d="M130.68,136.02h-20.42c-.93,0-1.68-.75-1.68-1.68s.75-1.68,1.68-1.68h20.42c.93,0,1.68,.75,1.68,1.68s-.75,1.68-1.68,1.68Z"/>
    <path class="cls-7" d="M123.63,152.54h-21.16c-.93,0-1.68-.75-1.68-1.68s.75-1.68,1.68-1.68h21.16c.93,0,1.68,.75,1.68,1.68s-.75,1.68-1.68,1.68Z"/>
    <path class="cls-7" d="M130.68,169.07h-20.42c-.93,0-1.68-.75-1.68-1.68s.75-1.68,1.68-1.68h20.42c.93,0,1.68,.75,1.68,1.68s-.75,1.68-1.68,1.68Z"/>
    <path class="cls-1" d="M201.68,53.4h-28.21c-.93,0-1.68-.75-1.68-1.68s.75-1.68,1.68-1.68h28.21c.93,0,1.68,.75,1.68,1.68s-.75,1.68-1.68,1.68Z"/>
    <path class="cls-6" d="M240.57,69.92h-57.9c-.93,0-1.68-.75-1.68-1.68s.75-1.68,1.68-1.68h57.9c.93,0,1.68,.75,1.68,1.68s-.75,1.68-1.68,1.68h0Z"/>
    <path class="cls-6" d="M226.2,86.45h-43.53c-.93,0-1.68-.75-1.68-1.68s.75-1.68,1.68-1.68h43.53c.93,0,1.68,.75,1.68,1.68s-.75,1.68-1.68,1.68Z"/>
    <path class="cls-1" d="M203.22,102.97h-25.05c-.93,0-1.68-.75-1.68-1.68s.75-1.68,1.68-1.68h24.99c.93,0,1.68,.75,1.68,1.68s-.75,1.68-1.68,1.68h.07Z"/>
    <path class="cls-5" d="M213.17,119.5h-28.28c-.93,0-1.68-.75-1.68-1.68s.75-1.68,1.68-1.68h28.21c.93,0,1.68,.75,1.68,1.68s-.75,1.68-1.68,1.68h.07Z"/>
    <path class="cls-1" d="M227.54,136.02h-43.56c-.93,0-1.68-.75-1.68-1.68s.75-1.68,1.68-1.68h43.56c.93,0,1.68,.75,1.68,1.68s-.75,1.68-1.68,1.68Z"/>
    <path class="cls-1" d="M194.56,152.54h-21.16c-.93,0-1.68-.75-1.68-1.68s.75-1.68,1.68-1.68h21.16c.93,0,1.68,.75,1.68,1.68s-.75,1.68-1.68,1.68Z"/>
    <path class="cls-4" d="M227.54,169.07h-46.35c-.93,0-1.68-.75-1.68-1.68s.75-1.68,1.68-1.68h46.35c.93,0,1.68,.75,1.68,1.68s-.75,1.68-1.68,1.68h0Z"/>
    <path class="cls-6" d="M271.94,169.07h-30.43c-.93,0-1.68-.75-1.68-1.68s.75-1.68,1.68-1.68h30.43c.93,0,1.68,.75,1.68,1.68s-.75,1.68-1.68,1.68Z"/>
    <path class="cls-1" d="M262.13,86.45h-21.49c-.93,0-1.68-.75-1.68-1.68s.75-1.68,1.68-1.68h21.49c.93,0,1.68,.75,1.68,1.68s-.75,1.68-1.68,1.68Z"/>
    <path class="cls-3" d="M292.71,69.92h-41.39c-.93,0-1.68-.75-1.68-1.68s.75-1.68,1.68-1.68h41.39c.93,0,1.68,.75,1.68,1.68s-.75,1.68-1.68,1.68h0Z"/>
    <path class="cls-5" d="M285.84,86.45h-12.09c-.93,0-1.68-.75-1.68-1.68s.75-1.68,1.68-1.68h12.09c.93,0,1.68,.75,1.68,1.68s-.75,1.68-1.68,1.68Z"/>
    <path class="cls-5" d="M233.59,119.5h-12.09c-.93,0-1.68-.75-1.68-1.68s.75-1.68,1.68-1.68h12.09c.93,0,1.68,.75,1.68,1.68s-.75,1.68-1.68,1.68Z"/>
    <path class="cls-6" d="M292.71,119.5h-49.19c-.93,0-1.68-.75-1.68-1.68s.75-1.68,1.68-1.68h49.19c.93,0,1.68,.75,1.68,1.68s-.75,1.68-1.68,1.68h0Z"/>
    <path class="cls-3" d="M251.32,136.02h-10.75c-.93,0-1.68-.75-1.68-1.68s.75-1.68,1.68-1.68h10.75c.93,0,1.68,.75,1.68,1.68s-.75,1.68-1.68,1.68Z"/>
    <path class="cls-1" d="M292.71,169.07h-6.87c-.93,0-1.68-.75-1.68-1.68s.75-1.68,1.68-1.68h6.87c.93,0,1.68,.75,1.68,1.68s-.75,1.68-1.68,1.68Z"/>
    <rect class="cls-1" x="272.8" y="1.68" width="117.53" height="92.9" rx="7.32" ry="7.32"/>
    <path class="cls-7" d="M383.04,96.26h-102.92c-4.97,0-8.99-4.03-9-9V9c0-4.97,4.03-8.99,9-9h102.92c4.97,0,8.99,4.03,9,9V87.25c0,4.97-4.03,8.99-9,9ZM280.12,3.36c-3.11,0-5.63,2.53-5.64,5.64V87.25c0,3.11,2.53,5.63,5.64,5.64h102.92c3.11,0,5.63-2.53,5.64-5.64V9c0-3.11-2.53-5.63-5.64-5.64h-102.92Z"/>
    <path class="cls-7" d="M390.33,24.58h-117.55c-.93,0-1.68-.75-1.68-1.68s.75-1.68,1.68-1.68h117.55c.93,0,1.68,.75,1.68,1.68s-.75,1.68-1.68,1.68Z"/>
    <circle class="cls-3" cx="284.05" cy="12.01" r="3.38"/>
    <circle class="cls-7" cx="294.66" cy="12.01" r="3.38" transform="translate(170.81 279.64) rotate(-67.5)"/>
    <circle class="cls-7" cx="305.26" cy="12.01" r="3.38"/>
    <path class="cls-3" d="M317.09,72.38c-.39,0-.76-.13-1.06-.39l-15.82-13.1c-.71-.59-.81-1.65-.22-2.36,.07-.08,.14-.15,.22-.22l15.82-13.12c.75-.54,1.8-.38,2.35,.37,.5,.69,.41,1.63-.21,2.21l-14.24,11.75,14.24,11.75c.71,.59,.81,1.65,.22,2.36,0,0,0,0,0,0-.3,.43-.77,.69-1.29,.72Z"/>
    <path class="cls-3" d="M346.1,72.38c-.5,0-.97-.22-1.29-.6-.59-.71-.5-1.77,.22-2.37h0s14.24-11.76,14.24-11.76l-14.24-11.75c-.71-.59-.81-1.65-.22-2.37,.59-.71,1.65-.81,2.37-.22l15.72,13c.71,.59,.81,1.65,.22,2.36-.07,.08-.14,.15-.22,.22l-15.79,13.17c-.29,.21-.65,.32-1.01,.32Z"/>
    <path class="cls-3" d="M323.07,80.18c-.23,0-.46-.05-.67-.13-.85-.37-1.23-1.37-.86-2.21,0,0,0,0,0,0l18.47-41.83c.37-.85,1.37-1.23,2.21-.86,0,0,0,0,0,0,.85,.37,1.23,1.37,.86,2.21,0,0,0,0,0,0l-18.47,41.83c-.27,.61-.88,1-1.54,.99Z"/>
    <rect class="cls-1" x="38.39" y="195.01" width="91.05" height="48.68" rx="6.43" ry="6.43"/>
    <path class="cls-7" d="M123.01,245.39H44.82c-4.48,0-8.1-3.64-8.11-8.11v-35.84c0-4.48,3.64-8.1,8.11-8.11H123.01c4.48,0,8.11,3.63,8.11,8.11h0v35.84c0,4.48-3.63,8.11-8.11,8.11h0Zm-78.19-48.7c-2.62,0-4.75,2.13-4.75,4.75h0v35.84c0,2.62,2.13,4.75,4.75,4.75H123.01c2.62,0,4.75-2.13,4.75-4.75h0v-35.84c0-2.62-2.13-4.75-4.75-4.75H44.82Z"/>
    <path class="cls-3" d="M57.01,211.96h2.54v5.68h6.72v-5.68h2.54v14.27h-2.54v-6.3h-6.72v6.3h-2.54v-14.27Z"/>
    <path class="cls-3" d="M74.86,214.26h-4.38v-2.3h11.28v2.3h-4.35v11.97h-2.54l-.02-11.97Z"/>
    <path class="cls-3" d="M83.56,211.96h3.93l3.81,9.99,3.85-9.99h3.83v14.27h-2.42v-11.86h0l-4.33,11.86h-1.88l-4.32-11.86h0v11.86h-2.42l-.05-14.27Z"/>
    <path class="cls-3" d="M102.17,211.96h2.54v11.97h6.06v2.3h-8.6v-14.27Z"/>
  </g>
</svg>