<?xml version="1.0" encoding="utf-8"?>
<!-- Generator: Adobe Illustrator 24.0.1, SVG Export Plug-In . SVG Version: 6.00 Build 0)  -->
<svg version="1.1" id="Layer_1" xmlns="http://www.w3.org/2000/svg" xmlns:xlink="http://www.w3.org/1999/xlink" x="0px" y="0px"
	 viewBox="0 0 1414 1414" style="enable-background:new 0 0 1414 1414;" xml:space="preserve">
<style type="text/css">
	.st0{fill:#1A56DB;}
	.st1{clip-path:url(#SVGID_7_);}
	.st2{clip-path:url(#SVGID_8_);fill:#1A56DB;}
</style>
<g>
	<g>
		<path id="SVGID_1_" class="st0" d="M327.1,226.2h193.1L668,1133.4H525.4l-25.9-180.1v2.6h-162l-25.9,177.5H179.4L327.1,226.2z
			 M482.6,832.7l-63.5-448.4h-2.6l-62.2,448.4H482.6z"/>
	</g>
	<g>
		<path id="SVGID_2_" class="st0" d="M826,1087.4c-36.3-39.3-54.4-95.7-54.4-169.1V441.3c0-73.4,18.1-129.8,54.4-169.1
			s89-59,158.1-59c69.1,0,121.8,19.7,158.1,59c36.3,39.3,54.4,95.7,54.4,169.1v77.8h-134.8v-86.8c0-59.6-24.6-89.4-73.9-89.4
			s-73.9,29.8-73.9,89.4v496.4c0,58.8,24.6,88.1,73.9,88.1s73.9-29.4,73.9-88.1V751.1h-71.3V621.5h206.1v296.8
			c0,73.5-18.2,129.8-54.4,169.1c-36.3,39.3-89,58.9-158.1,58.9C915,1146.3,862.3,1126.7,826,1087.4z"/>
	</g>
	<g>
		<defs>
			<path id="SVGID_3_" d="M327.1,226.2h193.1L668,1133.4H525.4l-25.9-180.1v2.6h-162l-25.9,177.5H179.4L327.1,226.2z M482.6,832.7
				l-63.5-448.4h-2.6l-62.2,448.4H482.6z"/>
		</defs>
		<use xlink:href="#SVGID_3_"  style="overflow:visible;fill:#1A56DB;"/>
		<clipPath id="SVGID_4_">
			<use xlink:href="#SVGID_3_"  style="overflow:visible;"/>
		</clipPath>
	</g>
	<g>
		<defs>
			<path id="SVGID_5_" d="M327.1,226.2h193.1L668,1133.4H525.4l-25.9-180.1v2.6h-162l-25.9,177.5H179.4L327.1,226.2z M482.6,832.7
				l-63.5-448.4h-2.6l-62.2,448.4H482.6z"/>
		</defs>
		<defs>
			<path id="SVGID_6_" d="M826,1087.4c-36.3-39.3-54.4-95.7-54.4-169.1V441.3c0-73.4,18.1-129.8,54.4-169.1s89-59,158.1-59
				c69.1,0,121.8,19.7,158.1,59c36.3,39.3,54.4,95.7,54.4,169.1v77.8h-134.8v-86.8c0-59.6-24.6-89.4-73.9-89.4s-73.9,29.8-73.9,89.4
				v496.4c0,58.8,24.6,88.1,73.9,88.1s73.9-29.4,73.9-88.1V751.1h-71.3V621.5h206.1v296.8c0,73.5-18.2,129.8-54.4,169.1
				c-36.3,39.3-89,58.9-158.1,58.9C915,1146.3,862.3,1126.7,826,1087.4z"/>
		</defs>
		<use xlink:href="#SVGID_5_"  style="overflow:visible;fill:#1A56DB;"/>
		<use xlink:href="#SVGID_6_"  style="overflow:visible;fill:#1A56DB;"/>
		<clipPath id="SVGID_7_">
			<use xlink:href="#SVGID_5_"  style="overflow:visible;"/>
		</clipPath>
		<clipPath id="SVGID_8_" class="st1">
			<use xlink:href="#SVGID_6_"  style="overflow:visible;"/>
		</clipPath>
		<rect x="-0.3" y="0.5" class="st2" width="1414.2" height="1413.9"/>
	</g>
</g>
</svg>
